<svg width="25" height="29" viewBox="0 0 25 29" fill="none" xmlns="http://www.w3.org/2000/svg">
<mask id="path-1-inside-1_1_118" fill="white">
<path fill-rule="evenodd" clip-rule="evenodd" d="M23.0132 25.4213C23.0132 26.2458 22.2773 26.9167 21.3729 26.9167H3.37721C2.47278 26.9167 1.73687 26.2458 1.73687 25.4214V3.07878C1.73687 2.25428 2.47278 1.58336 3.37721 1.58336H21.3728C22.2772 1.58339 23.0131 2.25425 23.0131 3.07872V19.7917C23.0131 20.2289 23.402 20.5833 23.8815 20.5833C24.361 20.5833 24.7499 20.2289 24.7499 19.7917V3.07872C24.7499 1.38108 23.235 0 21.3729 0H3.37721C1.51498 0 6.10608e-05 1.38108 0 3.07872V25.4213C6.56895e-05 27.1189 1.51502 28.5 3.37721 28.5H21.3728C23.235 28.5 24.75 27.1189 24.75 25.4213V23.75C24.75 23.3128 24.3611 22.9584 23.8816 22.9584C23.4021 22.9584 23.0132 23.3128 23.0132 23.75V25.4213Z"/>
<path fill-rule="evenodd" clip-rule="evenodd" d="M18.2869 9.30232V6.53154H6.46313V9.30232H18.2869ZM5.51452 11.0836H19.2355C19.7631 11.0836 20.1908 10.6937 20.1908 10.2128V5.62109C20.1908 5.14016 19.7631 4.75029 19.2355 4.75029H5.51452C4.98695 4.75029 4.55928 5.14016 4.55928 5.62109V10.2128C4.55928 10.6937 4.98695 11.0836 5.51452 11.0836Z"/>
<path fill-rule="evenodd" clip-rule="evenodd" d="M17.864 17.687C18.0289 17.8227 18.2371 17.8905 18.4453 17.8905C18.6677 17.8905 18.8899 17.8132 19.0595 17.6586C19.3986 17.3495 19.3986 16.8482 19.0595 16.539L16.1532 13.8897C16.1425 13.8799 16.1316 13.8705 16.1205 13.8613C15.7794 13.5808 15.2535 13.5903 14.925 13.8897C14.5859 14.1989 14.5859 14.7001 14.925 15.0093L17.8313 17.6586C17.842 17.6684 17.8529 17.6778 17.864 17.687ZM18.4765 17.0988L18.4453 17.1288L18.4765 17.0988ZM18.4765 17.0988L18.4453 17.1288L18.4765 17.0988Z"/>
<path fill-rule="evenodd" clip-rule="evenodd" d="M17.8313 13.8898C17.842 13.88 17.853 13.8706 17.8641 13.8614C18.2052 13.5809 18.7311 13.5905 19.0595 13.8898C19.3986 14.1989 19.3986 14.7002 19.0595 15.0093L16.1533 17.6587C16.1426 17.6684 16.1317 17.6779 16.1205 17.687C15.9556 17.8227 15.7473 17.8906 15.5392 17.8906C15.3169 17.8906 15.0947 17.8133 14.9251 17.6587C14.586 17.3495 14.586 16.8483 14.9251 16.5391L17.8313 13.8898Z"/>
<path fill-rule="evenodd" clip-rule="evenodd" d="M5.70274 21.8395C5.22323 21.8395 4.83433 22.1939 4.83433 22.6312C4.83433 23.0684 5.22317 23.4228 5.70274 23.4228H9.81274C10.2924 23.4228 10.6811 23.0684 10.6811 22.6312C10.6811 22.1939 10.2923 21.8395 9.81274 21.8395H5.70274Z"/>
<path fill-rule="evenodd" clip-rule="evenodd" d="M6.88942 20.7583C6.88942 20.321 7.27831 19.9666 7.75782 19.9666C8.23733 19.9666 8.62623 20.321 8.62623 20.7583V24.505C8.62623 24.9422 8.23733 25.2967 7.75782 25.2967C7.27825 25.2967 6.88942 24.9423 6.88942 24.505V20.7583Z"/>
<path fill-rule="evenodd" clip-rule="evenodd" d="M5.70274 14.9826C5.22323 14.9826 4.83433 15.337 4.83433 15.7742C4.83433 16.2115 5.22317 16.5659 5.70274 16.5659H9.81274C10.2924 16.5659 10.6811 16.2115 10.6811 15.7742C10.6811 15.337 10.2923 14.9826 9.81274 14.9826H5.70274Z"/>
<path fill-rule="evenodd" clip-rule="evenodd" d="M14.9373 20.6522C14.4578 20.6522 14.0689 21.0066 14.0689 21.4438C14.0689 21.8811 14.4577 22.2355 14.9373 22.2355H19.0473C19.5268 22.2355 19.9157 21.8811 19.9157 21.4438C19.9157 21.0066 19.5268 20.6522 19.0473 20.6522H14.9373Z"/>
<path fill-rule="evenodd" clip-rule="evenodd" d="M14.9373 23.0273C14.4578 23.0273 14.0689 23.3817 14.0689 23.819C14.0689 24.2562 14.4577 24.6106 14.9373 24.6106H19.0473C19.5268 24.6106 19.9157 24.2562 19.9157 23.819C19.9157 23.3817 19.5268 23.0273 19.0473 23.0273H14.9373Z"/>
</mask>
<path fill-rule="evenodd" clip-rule="evenodd" d="M23.0132 25.4213C23.0132 26.2458 22.2773 26.9167 21.3729 26.9167H3.37721C2.47278 26.9167 1.73687 26.2458 1.73687 25.4214V3.07878C1.73687 2.25428 2.47278 1.58336 3.37721 1.58336H21.3728C22.2772 1.58339 23.0131 2.25425 23.0131 3.07872V19.7917C23.0131 20.2289 23.402 20.5833 23.8815 20.5833C24.361 20.5833 24.7499 20.2289 24.7499 19.7917V3.07872C24.7499 1.38108 23.235 0 21.3729 0H3.37721C1.51498 0 6.10608e-05 1.38108 0 3.07872V25.4213C6.56895e-05 27.1189 1.51502 28.5 3.37721 28.5H21.3728C23.235 28.5 24.75 27.1189 24.75 25.4213V23.75C24.75 23.3128 24.3611 22.9584 23.8816 22.9584C23.4021 22.9584 23.0132 23.3128 23.0132 23.75V25.4213Z" fill="#FBED10"/>
<path fill-rule="evenodd" clip-rule="evenodd" d="M18.2869 9.30232V6.53154H6.46313V9.30232H18.2869ZM5.51452 11.0836H19.2355C19.7631 11.0836 20.1908 10.6937 20.1908 10.2128V5.62109C20.1908 5.14016 19.7631 4.75029 19.2355 4.75029H5.51452C4.98695 4.75029 4.55928 5.14016 4.55928 5.62109V10.2128C4.55928 10.6937 4.98695 11.0836 5.51452 11.0836Z" fill="#FBED10"/>
<path fill-rule="evenodd" clip-rule="evenodd" d="M17.864 17.687C18.0289 17.8227 18.2371 17.8905 18.4453 17.8905C18.6677 17.8905 18.8899 17.8132 19.0595 17.6586C19.3986 17.3495 19.3986 16.8482 19.0595 16.539L16.1532 13.8897C16.1425 13.8799 16.1316 13.8705 16.1205 13.8613C15.7794 13.5808 15.2535 13.5903 14.925 13.8897C14.5859 14.1989 14.5859 14.7001 14.925 15.0093L17.8313 17.6586C17.842 17.6684 17.8529 17.6778 17.864 17.687ZM18.4765 17.0988L18.4453 17.1288L18.4765 17.0988ZM18.4765 17.0988L18.4453 17.1288L18.4765 17.0988Z" fill="#FBED10"/>
<path fill-rule="evenodd" clip-rule="evenodd" d="M17.8313 13.8898C17.842 13.88 17.853 13.8706 17.8641 13.8614C18.2052 13.5809 18.7311 13.5905 19.0595 13.8898C19.3986 14.1989 19.3986 14.7002 19.0595 15.0093L16.1533 17.6587C16.1426 17.6684 16.1317 17.6779 16.1205 17.687C15.9556 17.8227 15.7473 17.8906 15.5392 17.8906C15.3169 17.8906 15.0947 17.8133 14.9251 17.6587C14.586 17.3495 14.586 16.8483 14.9251 16.5391L17.8313 13.8898Z" fill="#FBED10"/>
<path fill-rule="evenodd" clip-rule="evenodd" d="M5.70274 21.8395C5.22323 21.8395 4.83433 22.1939 4.83433 22.6312C4.83433 23.0684 5.22317 23.4228 5.70274 23.4228H9.81274C10.2924 23.4228 10.6811 23.0684 10.6811 22.6312C10.6811 22.1939 10.2923 21.8395 9.81274 21.8395H5.70274Z" fill="#FBED10"/>
<path fill-rule="evenodd" clip-rule="evenodd" d="M6.88942 20.7583C6.88942 20.321 7.27831 19.9666 7.75782 19.9666C8.23733 19.9666 8.62623 20.321 8.62623 20.7583V24.505C8.62623 24.9422 8.23733 25.2967 7.75782 25.2967C7.27825 25.2967 6.88942 24.9423 6.88942 24.505V20.7583Z" fill="#FBED10"/>
<path fill-rule="evenodd" clip-rule="evenodd" d="M5.70274 14.9826C5.22323 14.9826 4.83433 15.337 4.83433 15.7742C4.83433 16.2115 5.22317 16.5659 5.70274 16.5659H9.81274C10.2924 16.5659 10.6811 16.2115 10.6811 15.7742C10.6811 15.337 10.2923 14.9826 9.81274 14.9826H5.70274Z" fill="#FBED10"/>
<path fill-rule="evenodd" clip-rule="evenodd" d="M14.9373 20.6522C14.4578 20.6522 14.0689 21.0066 14.0689 21.4438C14.0689 21.8811 14.4577 22.2355 14.9373 22.2355H19.0473C19.5268 22.2355 19.9157 21.8811 19.9157 21.4438C19.9157 21.0066 19.5268 20.6522 19.0473 20.6522H14.9373Z" fill="#FBED10"/>
<path fill-rule="evenodd" clip-rule="evenodd" d="M14.9373 23.0273C14.4578 23.0273 14.0689 23.3817 14.0689 23.819C14.0689 24.2562 14.4577 24.6106 14.9373 24.6106H19.0473C19.5268 24.6106 19.9157 24.2562 19.9157 23.819C19.9157 23.3817 19.5268 23.0273 19.0473 23.0273H14.9373Z" fill="#FBED10"/>
<path d="M18.4765 17.0988L19.1691 16.3775L18.4765 15.7125L17.7839 16.3775L18.4765 17.0988ZM17.7839 16.3775L17.7527 16.4074L19.138 17.8501L19.1691 17.8201L17.7839 16.3775ZM17.7839 17.8201L18.3669 18.3799L19.7521 16.9373L19.1691 16.3775L17.7839 17.8201ZM14.8154 17.8202L14.8465 17.85L16.2318 16.4075L16.2007 16.3776L14.8154 17.8202ZM21.3728 1.58336L21.3729 -0.416636H21.3728V1.58336ZM0 3.07872L-2 3.07865V3.07872H0ZM0 25.4213H-2V25.4214L0 25.4213ZM21.3728 28.5V30.5H21.3728L21.3728 28.5ZM18.2869 6.53154H20.2869V4.53154H18.2869V6.53154ZM18.2869 9.30232V11.3023H20.2869V9.30232H18.2869ZM6.46313 6.53154V4.53154H4.46313V6.53154H6.46313ZM6.46313 9.30232H4.46313V11.3023H6.46313V9.30232ZM17.864 17.687L16.5932 19.2313L16.5932 19.2314L17.864 17.687ZM19.0595 17.6586L20.4066 19.1369L20.4069 19.1366L19.0595 17.6586ZM19.0595 16.539L20.4069 15.061L20.4069 15.061L19.0595 16.539ZM16.1532 13.8897L17.5006 12.4117L17.5004 12.4114L16.1532 13.8897ZM16.1205 13.8613L17.391 12.3167L17.391 12.3167L16.1205 13.8613ZM14.925 13.8897L13.5778 12.4116L13.5776 12.4117L14.925 13.8897ZM14.925 15.0093L13.5776 16.4873L13.5776 16.4873L14.925 15.0093ZM17.8313 17.6586L19.1787 16.1806L19.1786 16.1806L17.8313 17.6586ZM17.8313 13.8898L16.4845 12.4113L16.484 12.4117L17.8313 13.8898ZM17.8641 13.8614L16.5938 12.3166L16.5938 12.3167L17.8641 13.8614ZM19.0595 13.8898L20.4069 12.4117L20.4068 12.4116L19.0595 13.8898ZM19.0595 15.0093L20.4069 16.4874L20.4069 16.4874L19.0595 15.0093ZM16.1533 17.6587L17.5004 19.1369L17.5006 19.1367L16.1533 17.6587ZM16.1205 17.687L17.3911 19.2316L17.3911 19.2316L16.1205 17.687ZM14.9251 17.6587L16.2725 16.1806H16.2725L14.9251 17.6587ZM14.9251 16.5391L13.5777 15.0611L13.5777 15.0611L14.9251 16.5391ZM21.3729 28.9167C23.2037 28.9167 25.0132 27.5205 25.0132 25.4213H21.0132C21.0132 25.2161 21.1086 25.0697 21.1848 25.0002C21.2582 24.9332 21.3294 24.9167 21.3729 24.9167V28.9167ZM-0.263127 25.4214C-0.263127 27.5206 1.54646 28.9167 3.37721 28.9167V24.9167C3.42065 24.9167 3.49181 24.9332 3.56525 25.0002C3.64147 25.0696 3.73687 25.216 3.73687 25.4214H-0.263127ZM3.37721 -0.416636C1.54631 -0.416636 -0.263127 0.979652 -0.263127 3.07878H3.73687C3.73687 3.28404 3.64151 3.4304 3.56531 3.49987C3.49188 3.56681 3.42069 3.58336 3.37721 3.58336V-0.416636ZM21.3728 -0.416636H3.37721V3.58336H21.3728V-0.416636ZM25.0131 3.07872C25.0131 0.979462 23.2035 -0.416574 21.3729 -0.416636L21.3727 3.58336C21.3293 3.58336 21.2581 3.56683 21.1847 3.49991C21.1085 3.43044 21.0131 3.28405 21.0131 3.07872H25.0131ZM23.8815 18.5833C24.3282 18.5833 25.0131 18.954 25.0131 19.7917H21.0131C21.0131 21.5038 22.4758 22.5833 23.8815 22.5833V18.5833ZM22.7499 19.7917C22.7499 18.954 23.4349 18.5833 23.8815 18.5833V22.5833C25.2872 22.5833 26.7499 21.5038 26.7499 19.7917H22.7499ZM21.3729 2C22.3086 2 22.7499 2.65573 22.7499 3.07872H26.7499C26.7499 0.106428 24.1615 -2 21.3729 -2V2ZM2 3.0788C2.00002 2.65575 2.44142 2 3.37721 2V-2C0.588537 -2 -1.99989 0.106408 -2 3.07865L2 3.0788ZM2 25.4213V3.07872H-2V25.4213H2ZM3.37721 26.5C2.44147 26.5 2.00002 25.8442 2 25.4212L-2 25.4214C-1.99988 28.3935 0.588565 30.5 3.37721 30.5V26.5ZM21.3728 26.5H3.37721V30.5H21.3728V26.5ZM22.75 25.4213C22.75 25.8441 22.3087 26.5 21.3728 26.5L21.3728 30.5C24.1613 30.5 26.75 28.3937 26.75 25.4213H22.75ZM23.8816 24.9584C23.4349 24.9584 22.75 24.5877 22.75 23.75H26.75C26.75 22.0379 25.2873 20.9584 23.8816 20.9584V24.9584ZM25.0132 23.75C25.0132 24.5877 24.3283 24.9584 23.8816 24.9584V20.9584C22.4759 20.9584 21.0132 22.0379 21.0132 23.75H25.0132ZM25.0132 25.4213V23.75H21.0132V25.4213H25.0132ZM3.37721 28.9167H21.3729V24.9167H3.37721V28.9167ZM-0.263127 3.07878V25.4214H3.73687V3.07878H-0.263127ZM25.0131 19.7917V3.07872H21.0131V19.7917H25.0131ZM22.7499 3.07872V19.7917H26.7499V3.07872H22.7499ZM3.37721 2H21.3729V-2H3.37721V2ZM22.75 23.75V25.4213H26.75V23.75H22.75ZM16.2869 6.53154V9.30232H20.2869V6.53154H16.2869ZM6.46313 8.53154H18.2869V4.53154H6.46313V8.53154ZM8.46313 9.30232V6.53154H4.46313V9.30232H8.46313ZM18.2869 7.30232H6.46313V11.3023H18.2869V7.30232ZM19.2355 9.08357H5.51452V13.0836H19.2355V9.08357ZM18.1908 10.2128C18.1908 9.41898 18.8367 9.08357 19.2355 9.08357V13.0836C20.6895 13.0836 22.1908 11.9684 22.1908 10.2128H18.1908ZM18.1908 5.62109V10.2128H22.1908V5.62109H18.1908ZM19.2355 6.75029C18.8367 6.75029 18.1908 6.41488 18.1908 5.62109H22.1908C22.1908 3.86544 20.6895 2.75029 19.2355 2.75029V6.75029ZM5.51452 6.75029H19.2355V2.75029H5.51452V6.75029ZM6.55928 5.62109C6.55928 6.41488 5.91332 6.75029 5.51452 6.75029V2.75029C4.06058 2.75029 2.55928 3.86544 2.55928 5.62109H6.55928ZM6.55928 10.2128V5.62109H2.55928V10.2128H6.55928ZM5.51452 9.08357C5.91332 9.08357 6.55928 9.41898 6.55928 10.2128H2.55928C2.55928 11.9684 4.06058 13.0836 5.51452 13.0836V9.08357ZM18.4453 15.8905C18.6625 15.8905 18.9134 15.9604 19.1348 16.1426L16.5932 19.2314C17.1445 19.685 17.8116 19.8905 18.4453 19.8905V15.8905ZM17.7124 16.1803C17.9429 15.9702 18.2141 15.8905 18.4453 15.8905V19.8905C19.1212 19.8905 19.8368 19.6562 20.4066 19.1369L17.7124 16.1803ZM17.7121 18.0171C17.4719 17.7981 17.3138 17.4667 17.3138 17.0988C17.3138 16.7309 17.4719 16.3996 17.7121 16.1806L20.4069 19.1366C21.6162 18.0342 21.6162 16.1634 20.4069 15.061L17.7121 18.0171ZM14.85 15.406C14.8352 15.3938 14.8206 15.3811 14.8061 15.368L17.5004 12.4114C17.4645 12.3787 17.428 12.3472 17.391 12.3167L14.85 15.406ZM16.2723 15.3678C16.0487 15.5716 15.7869 15.6526 15.562 15.6576C15.3382 15.6625 15.0785 15.5939 14.85 15.406L17.391 12.3167C16.2914 11.4123 14.6499 11.4344 13.5778 12.4116L16.2723 15.3678ZM16.2724 13.5313C16.5126 13.7502 16.6707 14.0816 16.6707 14.4495C16.6707 14.8174 16.5126 15.1487 16.2724 15.3677L13.5776 12.4117C12.3683 13.5141 12.3683 15.3849 13.5776 16.4873L16.2724 13.5313ZM19.1348 16.1426C19.1496 16.1548 19.1643 16.1675 19.1787 16.1806L16.4838 19.1366C16.5197 19.1693 16.5562 19.2009 16.5932 19.2313L19.1348 16.1426ZM19.1786 16.1806L16.2724 13.5312L13.5776 16.4873L16.4839 19.1366L19.1786 16.1806ZM19.1782 15.3683C19.1638 15.3813 19.1492 15.394 19.1344 15.4062L16.5938 12.3167C16.5567 12.3471 16.5202 12.3787 16.4845 12.4113L19.1782 15.3683ZM19.1344 15.4062C18.9059 15.5941 18.6463 15.6626 18.4226 15.6577C18.1979 15.6527 17.936 15.5718 17.7123 15.3679L20.4068 12.4116C19.3347 11.4345 17.6933 11.4125 16.5938 12.3166L19.1344 15.4062ZM17.7121 15.3678C17.4719 15.1488 17.3139 14.8174 17.3139 14.4496C17.3139 14.0817 17.4719 13.7503 17.7121 13.5313L20.4069 16.4874C21.6162 15.385 21.6162 13.5141 20.4069 12.4117L17.7121 15.3678ZM14.8061 16.1804C14.8206 16.1673 14.8352 16.1546 14.85 16.1424L17.3911 19.2316C17.4281 19.2011 17.4646 19.1696 17.5004 19.1369L14.8061 16.1804ZM14.85 16.1424C15.0711 15.9605 15.3216 15.8906 15.5392 15.8906V19.8906C16.173 19.8906 16.8401 19.6848 17.3911 19.2316L14.85 16.1424ZM15.5392 15.8906C15.7702 15.8906 16.0417 15.9702 16.2725 16.1806L13.5777 19.1367C14.1478 19.6564 14.8635 19.8906 15.5392 19.8906V15.8906ZM16.2725 16.1806C16.5127 16.3996 16.6707 16.731 16.6707 17.0989C16.6707 17.4668 16.5127 17.7981 16.2725 18.0171L13.5777 15.0611C12.3684 16.1635 12.3684 18.0343 13.5777 19.1367L16.2725 16.1806ZM16.2725 18.0171L19.1787 15.3678L16.484 12.4117L13.5777 15.0611L16.2725 18.0171ZM17.7121 13.5313L14.8059 16.1806L17.5006 19.1367L20.4069 16.4874L17.7121 13.5313ZM6.83433 22.6312C6.83433 23.4688 6.14941 23.8395 5.70274 23.8395V19.8395C4.29705 19.8395 2.83433 20.919 2.83433 22.6312H6.83433ZM5.70274 21.4228C6.14944 21.4228 6.83433 21.7936 6.83433 22.6312H2.83433C2.83433 24.3432 4.29689 25.4228 5.70274 25.4228V21.4228ZM8.68114 22.6312C8.68114 21.7937 9.366 21.4228 9.81274 21.4228V25.4228C11.2187 25.4228 12.6811 24.3431 12.6811 22.6312H8.68114ZM9.81274 23.8395C9.36603 23.8395 8.68114 23.4687 8.68114 22.6312H12.6811C12.6811 20.9191 11.2186 19.8395 9.81274 19.8395V23.8395ZM5.70274 23.8395H9.81274V19.8395H5.70274V23.8395ZM9.81274 21.4228H5.70274V25.4228H9.81274V21.4228ZM8.88942 20.7583C8.88942 21.5959 8.20449 21.9666 7.75782 21.9666V17.9666C6.35213 17.9666 4.88942 19.0462 4.88942 20.7583H8.88942ZM7.75782 21.9666C7.31115 21.9666 6.62623 21.5959 6.62623 20.7583H10.6262C10.6262 19.0462 9.16351 17.9666 7.75782 17.9666V21.9666ZM6.62623 24.505C6.62623 23.6674 7.31106 23.2967 7.75782 23.2967V27.2967C9.1636 27.2967 10.6262 26.217 10.6262 24.505H6.62623ZM7.75782 23.2967C8.20452 23.2967 8.88942 23.6675 8.88942 24.505H4.88942C4.88942 26.2171 6.35198 27.2967 7.75782 27.2967V23.2967ZM8.88942 24.505V20.7583H4.88942V24.505H8.88942ZM6.62623 20.7583V24.505H10.6262V20.7583H6.62623ZM6.83433 15.7742C6.83433 16.6119 6.14941 16.9826 5.70274 16.9826V12.9826C4.29705 12.9826 2.83433 14.0621 2.83433 15.7742H6.83433ZM5.70274 14.5659C6.14944 14.5659 6.83433 14.9366 6.83433 15.7742H2.83433C2.83433 17.4863 4.29689 18.5659 5.70274 18.5659V14.5659ZM8.68114 15.7742C8.68114 14.9367 9.366 14.5659 9.81274 14.5659V18.5659C11.2187 18.5659 12.6811 17.4862 12.6811 15.7742H8.68114ZM9.81274 16.9826C9.36604 16.9826 8.68114 16.6118 8.68114 15.7742H12.6811C12.6811 14.0622 11.2186 12.9826 9.81274 12.9826V16.9826ZM5.70274 16.9826H9.81274V12.9826H5.70274V16.9826ZM9.81274 14.5659H5.70274V18.5659H9.81274V14.5659ZM16.0689 21.4438C16.0689 22.2815 15.384 22.6522 14.9373 22.6522V18.6522C13.5316 18.6522 12.0689 19.7317 12.0689 21.4438H16.0689ZM14.9373 20.2355C15.384 20.2355 16.0689 20.6063 16.0689 21.4438H12.0689C12.0689 23.1558 13.5314 24.2355 14.9373 24.2355V20.2355ZM17.9157 21.4438C17.9157 20.6063 18.6006 20.2355 19.0473 20.2355V24.2355C20.4531 24.2355 21.9157 23.1559 21.9157 21.4438H17.9157ZM19.0473 22.6522C18.6006 22.6522 17.9157 22.2814 17.9157 21.4438H21.9157C21.9157 19.7318 20.4531 18.6522 19.0473 18.6522V22.6522ZM14.9373 22.6522H19.0473V18.6522H14.9373V22.6522ZM19.0473 20.2355H14.9373V24.2355H19.0473V20.2355ZM16.0689 23.819C16.0689 24.6566 15.3839 25.0273 14.9373 25.0273V21.0273C13.5316 21.0273 12.0689 22.1068 12.0689 23.819H16.0689ZM14.9373 22.6106C15.384 22.6106 16.0689 22.9814 16.0689 23.819H12.0689C12.0689 25.531 13.5314 26.6106 14.9373 26.6106V22.6106ZM17.9157 23.819C17.9157 22.9814 18.6006 22.6106 19.0473 22.6106V26.6106C20.4531 26.6106 21.9157 25.531 21.9157 23.819H17.9157ZM19.0473 25.0273C18.6006 25.0273 17.9157 24.6565 17.9157 23.819H21.9157C21.9157 22.1069 20.4531 21.0273 19.0473 21.0273V25.0273ZM14.9373 25.0273H19.0473V21.0273H14.9373V25.0273ZM19.0473 22.6106H14.9373V26.6106H19.0473V22.6106ZM14.8059 15.3677L17.7121 18.0171L20.4069 15.061L17.5006 12.4117L14.8059 15.3677Z" fill="#222222" mask="url(#path-1-inside-1_1_118)"/>
</svg>
